<?xml version="1.0" standalone="no"?>
<!DOCTYPE svg PUBLIC "-//W3C//DTD SVG 20010904//EN"
 "http://www.w3.org/TR/2001/REC-SVG-20010904/DTD/svg10.dtd">
<svg version="1.0" xmlns="http://www.w3.org/2000/svg"
 width="799.000000pt" height="799.000000pt" viewBox="0 0 799.000000 799.000000"
 preserveAspectRatio="xMidYMid meet">
<metadata>
Created by potrace 1.14, written by Peter Selinger 2001-2017
</metadata>
<g transform="translate(0.000000,799.000000) scale(0.100000,-0.100000)"
fill="#000000" stroke="none">
<path d="M5335 6852 c-5 -4 -11 -13 -13 -21 -2 -8 -10 -30 -17 -49 -12 -27
-19 -33 -32 -27 -10 4 -31 13 -48 19 -16 6 -41 19 -55 28 -43 29 -87 29 -162
1 -52 -19 -72 -23 -77 -14 -12 19 -87 10 -113 -14 -13 -11 -32 -20 -43 -19
-11 1 -31 3 -45 4 -14 1 -30 2 -36 1 -19 -2 -47 -93 -47 -152 0 -69 9 -104 36
-149 12 -19 22 -39 23 -45 2 -9 35 -104 53 -150 31 -79 44 -125 43 -153 -1
-35 -34 -98 -74 -143 -24 -28 -190 -139 -207 -139 -21 0 -225 -79 -231 -90 -4
-6 -38 -15 -75 -21 -38 -5 -93 -22 -124 -37 -31 -15 -73 -29 -94 -31 -21 -1
-54 -9 -72 -17 -19 -8 -39 -14 -44 -14 -5 0 -20 29 -35 64 -47 118 -86 193
-118 228 -18 20 -43 47 -56 61 -31 35 -58 37 -120 8 -50 -24 -62 -42 -31 -46
32 -5 89 -35 89 -46 0 -10 -3 -10 -12 -1 -18 18 -32 15 -71 -16 l-36 -29 37
-34 c72 -66 104 -113 107 -160 3 -52 10 -81 24 -108 16 -29 14 -35 -16 -53
-16 -9 -37 -25 -48 -35 -25 -23 -117 -55 -128 -44 -4 4 1 31 11 58 16 43 19
72 16 183 -1 72 -5 134 -7 137 -3 3 -21 6 -39 6 -31 2 -35 -2 -70 -68 -39 -73
-63 -138 -104 -290 -13 -49 -27 -99 -30 -110 -3 -11 -6 -26 -6 -34 -1 -7 -27
-39 -59 -69 -59 -55 -74 -84 -82 -155 -5 -40 11 -127 30 -162 7 -13 8 -27 2
-37 -5 -9 -12 -43 -15 -75 -7 -58 -18 -77 -42 -68 -13 5 -32 -33 -35 -68 -2
-21 -32 -41 -47 -32 -6 3 -10 4 -10 0 0 -3 12 -10 26 -15 16 -7 24 -16 21 -24
-3 -8 0 -37 8 -65 12 -45 11 -56 -5 -98 -11 -29 -30 -56 -49 -69 -72 -49 -104
-107 -107 -193 -2 -49 2 -74 18 -105 12 -23 20 -42 20 -44 -35 -64 -34 -116 3
-149 14 -13 25 -27 25 -32 0 -7 61 -45 85 -53 5 -2 8 -7 6 -13 -1 -5 -4 -20
-5 -32 -1 -25 -32 -38 -44 -18 -4 7 -21 19 -38 28 -29 15 -32 15 -50 -3 -19
-20 -20 -19 -64 69 -25 49 -47 87 -50 84 -3 -2 -6 -18 -6 -34 -4 -78 -3 -76
-19 -55 -20 26 -19 12 6 -99 24 -110 19 -150 -27 -203 -19 -22 -34 -46 -34
-54 -1 -8 -9 -3 -20 11 -15 18 -20 19 -20 7 0 -20 2 -12 -14 -79 -19 -80 -14
-124 27 -247 19 -58 32 -108 28 -112 -4 -4 -16 -9 -28 -11 -11 -1 -46 -22 -76
-46 -60 -45 -70 -68 -67 -143 3 -63 1 -68 -15 -68 -8 0 -15 -6 -16 -12 -4 -59
-12 -87 -43 -147 -19 -39 -38 -82 -40 -97 -3 -14 -12 -34 -20 -43 -8 -9 -44
-72 -79 -141 -36 -69 -78 -148 -94 -175 -17 -29 -28 -59 -25 -70 5 -21 6 -86
1 -148 -2 -28 -6 -36 -16 -32 -8 3 -17 5 -19 5 -2 0 -4 7 -4 15 0 23 -16 18
-28 -10 -11 -24 -9 -27 23 -42 29 -14 42 -15 82 -4 67 16 93 21 136 24 38 3
53 -5 126 -71 l26 -23 -24 7 c-21 5 -23 4 -16 -12 14 -36 10 -48 -35 -82 -86
-66 -93 -72 -88 -77 4 -5 86 53 115 81 7 7 29 22 49 34 35 22 37 22 87 7 117
-36 158 -48 187 -51 17 -2 41 -13 53 -24 12 -11 45 -29 72 -40 28 -11 67 -28
89 -37 l39 -16 -105 -102 c-141 -138 -262 -235 -426 -340 -75 -49 -146 -93
-157 -98 -11 -5 -31 -16 -44 -24 -18 -10 -30 -11 -43 -4 -10 6 -38 7 -61 4
-39 -6 -48 -3 -92 31 -67 50 -176 168 -197 211 -10 20 -20 50 -24 68 l-6 32
53 7 c29 4 79 16 112 28 60 20 187 84 197 97 3 4 26 22 53 40 49 33 59 60 34
92 -18 23 -58 16 -108 -21 -30 -21 -50 -29 -64 -25 -11 4 -27 8 -35 9 -8 1
-30 10 -48 20 -18 9 -38 16 -45 15 -32 -4 -38 1 -27 21 6 11 8 20 6 20 -3 0
-1 11 4 25 5 14 7 25 5 25 -3 0 -28 -14 -56 -32 -34 -21 -63 -50 -87 -87 -19
-31 -38 -58 -42 -61 -4 -3 -17 -25 -30 -49 -42 -84 -28 -230 28 -280 15 -13
27 -29 27 -36 0 -23 60 -82 97 -96 31 -11 38 -18 38 -41 0 -20 11 -36 41 -60
23 -18 44 -33 48 -33 20 -2 81 -43 111 -76 47 -51 88 -60 135 -28 29 20 35 29
30 49 -3 14 -14 32 -25 41 -10 9 -22 28 -25 41 -6 24 -4 25 47 27 104 4 131 9
172 39 58 41 86 55 86 42 0 -5 -6 -10 -13 -10 -7 0 -21 -11 -31 -25 -10 -14
-24 -31 -30 -40 -6 -8 -20 -16 -31 -18 -11 -2 -38 -12 -60 -22 -26 -11 -41
-13 -43 -6 -2 6 -10 11 -17 11 -7 0 -15 6 -18 13 -2 6 -7 9 -11 6 -12 -11 33
-123 56 -143 24 -19 49 -19 157 5 61 13 89 36 98 80 4 23 8 28 14 16 13 -23
119 -31 165 -12 25 10 41 12 49 5 9 -8 17 -4 29 14 9 14 16 28 16 32 0 3 14
22 30 41 17 18 30 43 30 55 0 18 2 19 16 7 25 -20 76 -36 101 -29 12 3 33 15
48 28 14 12 38 25 53 28 15 3 35 11 44 18 23 17 88 144 88 172 0 31 15 38 42
20 33 -24 91 -20 125 7 15 13 49 38 75 55 50 34 87 97 109 185 7 28 17 47 25
47 17 0 17 -5 4 -31 -13 -23 -8 -24 30 -4 16 8 33 15 37 14 32 -5 56 11 124
82 61 64 79 88 84 120 4 22 13 45 20 53 29 29 55 83 55 114 0 30 2 33 23 25
45 -16 88 -8 116 23 15 16 43 40 62 53 52 36 72 69 77 128 2 29 11 58 18 64 8
6 14 17 14 24 0 30 55 52 85 33 17 -10 71 18 91 47 11 14 40 48 65 73 56 56
94 125 91 164 -1 15 1 28 5 29 54 4 72 13 114 55 26 26 60 72 74 103 15 31 36
72 47 91 15 28 18 45 12 90 -12 98 -12 109 -4 147 5 21 11 57 15 80 3 23 12
55 20 70 8 15 15 38 15 51 0 13 6 22 16 22 9 0 14 7 12 18 -2 11 2 25 8 33 14
17 26 119 14 119 -28 0 -108 -72 -141 -127 -46 -74 -100 -199 -91 -208 4 -3
-1 -3 -9 0 -14 5 -17 -5 -18 -72 -3 -131 -10 -141 -71 -100 -19 13 -50 30 -67
38 -18 8 -33 17 -33 21 0 5 -6 8 -14 8 -30 0 -26 20 4 26 17 4 33 10 35 14 6
9 -24 7 -66 -5 -48 -12 -109 33 -109 82 0 25 41 103 73 138 14 17 44 50 67 75
22 24 40 47 40 50 -1 3 -14 21 -30 40 l-30 34 -65 -64 c-36 -36 -68 -73 -71
-82 -3 -10 -10 -16 -15 -12 -5 3 -7 10 -4 15 4 5 1 9 -4 9 -6 0 -11 -9 -11
-19 0 -11 -9 -41 -21 -68 -20 -47 -40 -227 -23 -210 4 4 19 -3 33 -16 21 -19
85 -47 121 -53 14 -2 72 -19 128 -36 34 -11 69 -21 77 -22 29 -4 25 -16 -31
-91 l-58 -77 -17 38 -18 39 -1 -30 c-2 -32 -7 -67 -15 -100 -6 -26 -102 -128
-113 -121 -15 9 -62 -48 -64 -78 -2 -18 -21 -46 -60 -84 -32 -31 -69 -68 -83
-82 -14 -14 -60 -60 -103 -104 -90 -91 -184 -159 -221 -158 -14 0 -39 3 -56 6
l-30 7 27 -19 c25 -17 26 -19 9 -29 -14 -9 -21 -8 -32 3 -13 12 -15 10 -16
-18 -1 -26 -7 -95 -12 -140 -1 -3 -39 -54 -86 -113 -54 -67 -85 -115 -85 -130
0 -14 -9 -29 -21 -35 -11 -7 -29 -19 -39 -28 -28 -24 -62 -22 -94 5 -31 25
-53 24 -93 -7 -14 -11 -36 -16 -67 -14 -52 3 -55 -4 -30 -55 19 -38 47 -54 86
-49 25 4 27 3 15 -9 -8 -8 -32 -20 -53 -28 -43 -14 -55 -7 -46 29 5 20 4 20
-14 -2 l-20 -24 -56 34 c-31 18 -64 46 -73 63 -8 17 -13 22 -11 13 6 -22 -16
-24 -33 -4 -18 21 -3 44 37 54 l37 9 -28 11 -27 12 20 52 c11 29 20 55 20 58
0 3 -20 -17 -45 -43 l-44 -48 -65 20 c-35 11 -87 31 -115 45 -28 14 -59 26
-71 26 -11 0 -20 4 -20 9 0 11 116 112 157 136 17 10 39 36 49 57 16 36 16 40
-1 72 l-19 35 -29 -17 c-16 -9 -64 -50 -106 -91 -128 -124 -157 -144 -188
-135 -34 9 -52 9 -125 -3 -54 -9 -59 -8 -80 15 -58 61 -152 83 -246 56 -30 -9
-56 -13 -59 -10 -3 3 7 18 23 34 83 84 104 118 104 170 0 38 33 127 48 128 7
1 21 2 31 3 45 3 68 65 37 97 -13 13 -11 22 14 75 15 33 35 68 43 77 8 9 25
42 38 72 26 61 36 73 58 60 46 -25 211 136 211 207 0 13 5 24 10 24 12 2 16 3
65 17 22 6 57 14 78 17 20 3 37 10 37 15 0 6 7 10 15 10 8 0 40 16 69 36 122
80 212 43 245 -101 6 -27 9 -68 6 -90 -18 -137 -24 -317 -11 -365 5 -21 -3
-35 -49 -84 -30 -32 -55 -62 -55 -67 0 -20 24 -6 63 38 65 72 99 103 113 103
17 0 123 128 130 157 3 12 0 48 -7 80 -7 32 -12 67 -11 78 10 120 -11 249 -50
307 -10 14 -18 29 -18 33 0 14 -89 92 -125 109 -64 30 -106 34 -260 22 -92 -6
-114 9 -75 55 46 54 64 70 104 87 22 10 66 42 97 70 63 58 122 86 165 77 16
-3 63 -9 104 -12 63 -5 83 -12 123 -39 26 -18 55 -35 65 -38 22 -7 75 -120 99
-211 10 -39 23 -76 30 -83 7 -7 16 -25 19 -40 9 -43 13 -52 21 -52 4 0 30 29
56 64 48 63 48 64 85 55 77 -17 102 -19 102 -9 0 5 -3 10 -7 10 -5 0 -30 21
-58 45 -27 25 -53 45 -57 45 -6 0 -67 121 -99 197 -16 38 -31 44 -26 11 2 -13
1 -34 -2 -47 -6 -23 -8 -22 -34 18 -69 104 -108 133 -228 171 -52 16 -173 21
-195 8 -28 -17 -185 -25 -282 -14 -49 6 -53 5 -62 -19 -5 -14 -12 -37 -14 -51
-6 -33 -37 -115 -49 -131 -5 -7 -15 -31 -22 -55 -41 -126 -54 -149 -53 -90 0
22 -2 45 -6 50 -3 6 -1 23 5 39 12 32 21 93 14 93 -3 0 -10 -20 -16 -45 -6
-25 -16 -45 -21 -45 -5 0 -7 4 -3 9 3 5 1 12 -5 16 -6 3 -19 24 -30 45 l-20
39 35 37 c20 21 38 48 41 61 7 27 7 27 61 7 24 -9 45 -15 48 -13 2 3 7 20 10
38 3 18 13 47 21 64 9 16 17 49 17 73 2 38 4 42 15 27 7 -9 18 -32 24 -50 17
-48 33 -43 41 14 2 12 6 26 10 29 4 4 7 15 7 24 0 9 5 27 12 41 11 24 14 25
98 21 93 -4 87 -6 210 66 67 39 141 50 344 52 44 0 85 5 93 11 7 6 13 10 14 8
0 -2 2 -15 5 -29 6 -37 82 -184 112 -218 32 -34 80 -61 105 -57 20 4 23 -18 5
-37 -32 -33 -40 -51 -48 -105 -4 -32 -12 -67 -16 -78 -7 -18 -6 -18 9 -7 14
12 16 11 12 -7 -2 -11 0 -23 6 -26 5 -4 9 -2 9 3 0 8 19 34 73 102 7 8 19 28
27 45 8 16 42 57 75 91 83 85 125 132 125 140 0 4 13 28 29 53 16 25 37 71 46
101 9 30 25 74 37 97 11 23 20 45 20 50 0 4 6 24 14 43 19 52 56 210 58 253 0
9 4 17 9 17 4 0 6 4 3 9 -6 9 12 72 23 81 3 3 21 34 39 70 38 72 139 206 162
215 8 3 29 17 45 33 17 15 53 43 80 62 28 19 52 38 53 43 2 4 10 7 18 7 8 0
14 5 14 10 0 6 5 10 10 10 6 0 16 5 23 10 28 24 223 163 234 167 8 3 10 16 6
34 -5 27 -3 29 24 29 39 0 100 44 189 137 39 40 73 73 76 73 4 0 -5 -21 -18
-47 -13 -27 -22 -54 -19 -61 3 -7 0 -10 -5 -7 -6 3 -13 -2 -17 -12 -4 -10 -9
-20 -12 -23 -3 -3 -14 -21 -24 -40 -108 -203 -147 -282 -157 -315 -11 -39 -13
-40 -48 -37 -24 2 -51 -5 -77 -19 -22 -11 -53 -28 -70 -37 -44 -22 -124 -81
-170 -124 -22 -21 -43 -38 -47 -38 -14 0 -89 -110 -119 -173 -16 -34 -29 -76
-29 -93 0 -18 -16 -67 -37 -109 -50 -106 -52 -168 -10 -337 28 -114 43 -153
44 -115 0 6 3 39 8 72 4 33 9 76 11 95 2 19 6 55 9 80 3 25 8 68 11 95 11 93
15 109 48 180 19 38 37 81 41 95 8 24 81 130 91 130 5 0 -26 -51 -36 -60 -17
-15 -52 -88 -65 -138 -9 -31 -19 -64 -22 -72 -15 -37 -13 -77 8 -144 12 -39
22 -74 21 -78 -1 -5 2 -8 6 -8 5 0 21 44 36 98 56 195 68 228 102 279 41 63
86 94 177 123 73 23 89 21 69 -10 -7 -11 -12 -29 -12 -39 0 -11 -4 -22 -9 -25
-4 -3 -16 -31 -25 -63 -10 -32 -24 -72 -32 -89 -7 -17 -16 -49 -20 -70 -3 -22
-8 -42 -11 -46 -5 -9 -14 -45 -17 -73 -2 -11 3 -44 9 -72 7 -29 10 -53 6 -53
-3 0 -21 4 -39 9 -49 14 -45 8 38 -63 41 -34 43 -43 9 -41 -71 4 -25 -25 66
-42 17 -3 37 -9 45 -13 18 -10 81 -22 135 -25 22 -2 42 -4 45 -4 3 -1 -12 -11
-32 -22 -21 -11 -38 -22 -38 -25 0 -3 34 -21 75 -40 59 -28 88 -36 138 -37 61
-2 66 0 143 53 43 30 93 68 110 85 17 16 70 66 118 110 92 84 121 124 113 157
-4 12 1 22 11 26 9 4 43 22 74 40 61 36 67 42 266 271 12 14 25 34 28 43 3 9
13 19 22 22 15 5 26 38 23 71 -6 69 -9 96 -15 126 -7 34 -6 37 21 44 15 5 33
7 38 6 33 -9 70 -12 91 -7 25 7 121 97 166 156 15 19 43 53 63 75 20 22 51 57
68 78 66 80 77 92 77 82 0 -5 11 -23 25 -39 l24 -29 -5 64 c-3 35 -7 70 -10
77 -4 12 73 92 89 92 4 0 5 11 1 24 -4 16 -1 27 9 33 21 11 45 101 39 143 -3
19 -13 46 -24 60 -10 13 -18 36 -17 50 2 40 0 45 -14 26 -12 -16 -17 -10 -50
56 -34 69 -74 115 -163 188 -17 14 -29 30 -27 36 2 5 -13 18 -32 28 -19 10
-37 27 -40 37 -3 10 -30 30 -59 44 -50 24 -57 25 -153 18 l-101 -9 13 33 c19
44 6 42 -34 -7 -31 -38 -35 -40 -51 -25 -14 13 -33 71 -46 146 -2 8 -8 26 -13
40 -9 21 -10 22 -12 4 -1 -11 -1 -23 0 -27 4 -26 -58 10 -210 123 -58 44 -111
79 -117 79 -6 0 -12 3 -14 8 -4 8 -134 72 -148 72 -12 0 54 -111 84 -142 12
-13 76 -62 142 -111 65 -48 139 -105 164 -127 24 -22 48 -40 52 -40 3 0 6 -8
6 -17 -2 -22 31 -93 43 -93 12 0 0 -29 -26 -65 -12 -16 -36 -55 -54 -85 -32
-55 -145 -219 -191 -279 -25 -32 -63 -78 -135 -165 -72 -87 -178 -187 -275
-259 -172 -127 -200 -149 -201 -161 0 -6 -2 -20 -4 -31 -3 -15 4 -24 26 -34
42 -18 66 -9 131 51 31 29 83 73 115 98 56 44 86 69 160 138 19 17 39 32 44
32 5 0 9 3 9 8 0 4 21 30 46 57 125 136 381 491 425 590 32 73 62 89 184 101
51 5 105 -8 105 -25 0 -5 -6 -16 -13 -23 -7 -7 -28 -35 -47 -63 -19 -27 -40
-56 -47 -63 -7 -8 -18 -23 -24 -34 -6 -11 -17 -27 -24 -36 -23 -28 -198 -261
-227 -303 -40 -56 -55 -91 -53 -119 4 -71 3 -69 45 -68 29 0 41 5 45 19 5 16
75 126 98 154 4 6 35 46 68 90 32 44 65 87 72 95 7 8 23 31 36 50 63 91 134
179 142 174 11 -6 -21 -89 -41 -104 -3 -3 -41 -52 -84 -110 -83 -113 -125
-167 -142 -184 -5 -6 -13 -18 -17 -26 -4 -8 -14 -25 -22 -36 -15 -20 -14 -22
17 -37 33 -16 88 -76 88 -96 0 -28 26 2 156 177 173 231 170 226 179 291 l7
53 24 -23 c13 -12 24 -27 24 -33 0 -6 9 -27 19 -47 11 -19 25 -54 31 -76 12
-38 11 -43 -30 -116 -23 -43 -47 -80 -54 -85 -6 -4 -20 -20 -30 -37 -11 -16
-27 -39 -37 -50 -10 -11 -42 -49 -70 -85 -29 -36 -74 -87 -99 -113 -25 -27
-49 -57 -55 -67 -21 -37 -122 -137 -137 -134 -27 4 -93 -32 -121 -65 -24 -29
-33 -52 -51 -133 -3 -14 -33 -55 -67 -90 -33 -34 -73 -78 -87 -97 -15 -19 -44
-52 -64 -74 -21 -21 -39 -45 -39 -53 -1 -8 -2 -19 -3 -26 0 -6 -12 -13 -25
-15 -28 -4 -88 -57 -181 -158 -10 -11 -28 -21 -40 -22 -12 -1 -88 -41 -168
-89 -109 -64 -158 -88 -190 -91 -23 -2 -52 -7 -65 -12 -29 -11 -57 -6 -106 20
-22 11 -48 22 -58 23 -15 3 -18 12 -17 52 2 85 15 165 34 209 10 24 16 45 14
48 -6 5 33 97 41 97 2 0 15 -11 28 -24 20 -20 26 -40 32 -95 4 -39 10 -69 14
-66 4 2 13 22 21 45 13 38 14 39 31 24 19 -17 19 -38 4 -163 -6 -44 7 -30 30
34 24 68 28 71 64 44 38 -28 108 -33 160 -12 106 44 243 175 303 290 l37 71
-83 -44 c-94 -49 -100 -51 -87 -26 6 9 24 61 42 114 l32 98 76 36 c42 20 95
45 119 55 23 10 42 20 42 22 0 2 -140 1 -238 -2 -13 -1 -39 -16 -58 -35 l-34
-34 0 -143 0 -144 -38 -25 c-20 -14 -50 -32 -67 -40 -46 -23 -115 -72 -115
-81 0 -5 7 -6 15 -3 8 4 15 1 15 -4 0 -24 -87 -14 -118 13 -6 6 33 105 41 105
4 0 6 4 2 9 -3 5 0 15 7 23 7 7 19 24 26 38 7 14 51 72 97 130 47 58 85 108
85 112 0 4 -15 19 -34 34 -32 26 -33 29 -20 48 20 29 17 64 -7 76 -34 19 -64
3 -110 -57 -24 -32 -54 -69 -66 -83 -13 -14 -44 -56 -70 -95 -25 -38 -55 -82
-65 -97 -10 -15 -18 -31 -18 -36 0 -5 -7 -15 -15 -22 -8 -7 -15 -20 -15 -29 0
-10 -6 -25 -12 -34 -11 -13 -16 -14 -31 -3 -16 13 -16 16 3 59 11 25 23 66 26
91 6 42 9 46 40 52 48 9 51 22 7 29 -21 4 -56 12 -78 17 -22 6 -51 12 -65 14
-25 3 -59 10 -95 21 -16 4 -18 3 -7 -8 6 -7 12 -16 12 -20 0 -4 -33 -20 -72
-35 -40 -15 -80 -32 -88 -38 -13 -9 -13 -9 -2 6 32 40 232 158 232 136 0 -6
12 0 28 14 15 14 51 36 81 49 43 18 50 24 35 30 -10 3 -22 5 -26 2 -17 -9 -7
12 16 36 14 15 66 100 116 190 l92 165 -34 28 -33 29 37 -21 37 -21 30 60 c17
33 40 76 51 96 35 63 70 135 68 139 -2 2 5 13 15 24 17 19 17 20 -5 34 -40 25
-77 38 -83 29 -3 -5 -28 2 -55 15 -27 13 -52 24 -56 24 -3 0 -16 13 -30 30
-14 16 -31 27 -39 24 -7 -3 -46 4 -87 15 -40 11 -109 23 -153 26 -44 3 -89 7
-100 8 -24 3 -145 -59 -145 -74 0 -6 3 -7 55 -12 17 -2 39 -6 50 -10 11 -4 54
-9 95 -12 72 -5 102 -9 164 -21 44 -9 96 -44 96 -65 0 -48 -147 -137 -255
-154 -11 -1 -38 -6 -60 -10 -22 -4 -58 -9 -80 -10 -185 -14 -243 -17 -335 -20
-58 -2 -108 -3 -112 -4 -5 -1 -8 -24 -8 -52 l0 -51 168 7 c92 4 185 9 207 10
123 9 193 17 221 26 17 5 40 11 50 13 10 2 31 7 47 11 17 5 27 3 27 -4 0 -6
-4 -11 -9 -11 -5 0 -24 -15 -42 -33 -19 -17 -58 -52 -88 -77 -30 -25 -59 -50
-65 -56 -9 -9 -214 -145 -254 -168 -10 -6 -13 -2 -11 15 6 41 -21 88 -71 124
-26 19 -51 35 -54 35 -4 0 -34 18 -67 40 -32 23 -59 38 -59 35 0 -3 10 -19 22
-35 12 -16 20 -32 17 -34 -2 -2 -28 6 -58 18 -51 22 -101 26 -159 11 -48 -12
-10 13 68 46 80 33 81 33 74 63 -4 17 -7 37 -7 44 -1 28 -123 -12 -302 -98
-77 -38 -167 -78 -200 -90 -33 -12 -67 -24 -75 -27 -8 -3 -19 -7 -25 -9 -5 -1
-53 -18 -105 -37 -53 -19 -114 -37 -137 -40 -23 -4 -64 -13 -90 -21 -42 -13
-153 -28 -153 -21 0 1 6 18 14 37 15 34 32 54 51 59 28 6 54 23 65 43 8 16 39
32 110 55 55 18 102 33 105 32 2 0 24 7 47 15 24 9 54 18 67 20 14 3 29 8 35
12 6 3 16 7 21 8 27 5 66 25 62 31 -11 18 53 7 66 -11 14 -19 15 -18 49 7 19
15 40 27 46 27 6 0 23 13 39 29 16 15 40 32 53 36 14 4 58 30 98 57 143 96
310 166 436 181 58 7 90 27 111 67 19 37 17 46 -9 42 -33 -4 2 15 39 21 17 3
45 10 63 16 18 5 35 10 37 10 3 0 15 3 28 6 12 3 36 7 52 10 83 11 199 44 225
64 22 16 48 23 105 26 123 7 199 35 272 98 20 17 34 28 31 22 -3 -5 -8 -38
-12 -71 -3 -34 -13 -75 -22 -92 -16 -34 -14 -136 4 -182 5 -14 8 -28 5 -32 -2
-5 0 -8 4 -8 13 0 73 137 90 208 9 34 19 62 23 62 4 0 20 -29 36 -64 16 -36
30 -63 32 -61 2 2 -3 32 -12 67 -35 149 -48 215 -47 244 0 17 -6 40 -13 50
-10 12 -11 26 -5 41 6 16 5 23 -4 23 -6 1 -23 24 -36 53 -17 36 -57 84 -131
157 -198 195 -262 255 -249 230 8 -14 16 -27 19 -30 3 -3 11 -16 18 -29 15
-26 10 -24 -44 16 -17 13 -36 23 -42 23 -7 0 -12 5 -12 10 0 6 -6 10 -14 10
-33 0 -148 62 -136 73 3 3 30 -1 60 -9 81 -21 89 -18 46 19 -77 64 -97 87 -92
105 3 9 7 34 11 56 3 21 8 42 11 47 6 11 2 11 -11 1z m-368 -97 c103 -23 253
-82 253 -99 0 -2 -44 7 -97 20 -54 13 -105 24 -113 24 -8 0 17 -22 55 -50 38
-27 63 -50 55 -51 -80 -4 -192 -30 -217 -51 -9 -7 -13 -7 -14 3 0 8 -2 25 -4
39 -10 71 -11 110 -3 110 5 0 7 4 4 9 -4 5 3 7 14 4 14 -4 20 0 21 11 1 9 3
21 4 26 1 6 3 13 4 16 0 3 5 2 11 -1 5 -3 18 -8 27 -10z m-179 -113 c2 -59 4
-67 17 -117 9 -34 34 -87 45 -95 4 -3 23 -37 44 -76 38 -72 69 -99 103 -88 12
4 9 -2 -9 -17 -22 -20 -26 -32 -27 -76 0 -80 0 -85 -10 -79 -5 3 -14 -1 -21
-9 -18 -22 -26 -18 -27 13 -3 54 -14 127 -23 147 -4 11 -20 55 -35 97 -15 43
-36 90 -48 105 -12 15 -22 32 -24 37 -1 6 -5 22 -9 36 -18 66 -8 180 15 180 3
0 7 -26 9 -58z m393 -154 c13 -20 -25 -52 -108 -92 -71 -35 -93 -38 -93 -14 0
6 -7 19 -16 29 -14 16 -14 20 1 43 9 13 35 31 58 39 50 17 146 14 158 -5z
m201 -19 c27 -16 53 -29 58 -29 6 0 10 -3 10 -7 0 -5 -24 -8 -52 -9 -29 0 -67
-3 -84 -7 -24 -5 -33 -3 -38 8 -3 8 -2 15 2 15 4 0 7 12 6 28 -3 51 12 51 98
1z m108 -162 c32 -5 60 -17 60 -26 0 -3 -15 -7 -33 -8 -18 -1 -60 -14 -93 -28
-32 -15 -70 -29 -84 -31 -13 -3 -28 -11 -32 -17 -4 -7 -11 -12 -15 -13 -4 0
-15 -4 -23 -7 -42 -17 -202 -58 -208 -53 -11 12 -12 46 -1 46 7 0 31 17 54 38
50 45 96 78 104 75 3 -2 7 -17 9 -35 6 -56 18 -53 28 8 10 63 16 66 118 61 50
-3 102 -7 116 -10z m240 -68 c0 -6 -7 -8 -16 -5 -9 3 -18 6 -20 6 -2 0 -4 7
-4 15 0 13 4 14 20 5 11 -6 20 -16 20 -21z m68 -92 c33 -50 53 -93 45 -100 -2
-3 -48 13 -101 35 -84 35 -102 39 -151 34 -150 -14 -206 -15 -186 -4 11 6 22
15 25 19 10 13 142 49 164 43 12 -3 31 -1 43 3 12 5 47 9 78 10 54 1 56 1 83
-40z m-857 -114 c-6 -21 -24 -60 -41 -86 -22 -35 -26 -47 -15 -47 8 0 15 -3
15 -8 0 -4 9 -13 20 -20 18 -11 25 -9 55 16 22 18 48 29 72 30 60 4 116 22
141 45 17 16 25 18 31 9 4 -6 18 -9 31 -6 110 23 216 41 223 37 4 -2 7 0 7 4
0 5 68 10 152 11 84 2 156 6 160 8 4 3 8 2 8 -3 0 -11 -88 -69 -125 -83 -24
-9 -106 -31 -205 -54 -184 -44 -208 -50 -265 -60 -22 -4 -52 -12 -67 -18 -15
-6 -49 -12 -75 -14 -27 -2 -55 -5 -63 -7 -8 -2 -37 -7 -65 -11 -27 -4 -59 -10
-70 -13 -16 -4 -13 2 13 29 35 37 34 41 -16 83 -15 12 -26 15 -30 9 -4 -6 -36
-29 -72 -52 -36 -23 -69 -45 -75 -50 -57 -47 -224 -132 -291 -148 -16 -4 -33
-10 -39 -14 -9 -6 -125 -40 -152 -44 -7 -1 -15 -5 -19 -8 -3 -4 -12 -4 -19 -2
-7 3 -16 0 -20 -5 -3 -6 -10 -9 -15 -6 -5 3 -18 1 -28 -4 -11 -6 -30 -12 -43
-15 -50 -11 -186 -63 -234 -90 -74 -41 -77 -45 -59 -64 15 -14 15 -17 -2 -29
-23 -17 -94 -14 -94 4 0 7 -4 13 -10 13 -20 0 -9 15 31 43 44 30 55 33 62 15
3 -9 11 -7 28 8 13 12 40 29 59 39 19 10 52 27 72 37 20 11 43 21 50 22 7 1
33 13 58 28 27 16 67 28 101 31 31 3 88 19 127 36 39 17 81 31 94 31 13 0 41
9 63 19 22 10 53 21 69 25 16 4 55 25 87 47 32 21 65 39 74 39 35 0 83 31 153
97 39 38 72 72 72 76 0 12 82 118 87 113 2 -2 0 -21 -6 -43z m-1234 -292 c44
-97 73 -181 64 -181 -5 0 -17 26 -27 58 -9 31 -23 62 -29 67 -15 13 -47 85
-37 85 3 0 1 5 -6 12 -15 15 -16 31 -1 22 6 -3 23 -32 36 -63z m1106 -98 c-7
-2 -19 -2 -25 0 -7 3 -2 5 12 5 14 0 19 -2 13 -5z m-118 -34 c-43 -16 -84 -34
-90 -38 -5 -5 -30 -20 -55 -33 -114 -64 -266 -157 -403 -249 -48 -32 -91 -59
-96 -59 -5 0 -11 -4 -13 -10 -3 -9 -168 -71 -223 -83 l-30 -7 27 15 c37 21 57
62 48 101 -11 50 -43 78 -95 84 -5 0 -2 5 8 11 13 8 22 7 32 -1 10 -8 27 -4
73 19 33 17 109 44 169 61 59 17 115 35 123 39 14 7 126 37 172 46 10 2 23 7
28 10 5 3 20 8 32 11 47 10 64 17 155 59 39 19 91 37 115 40 24 4 44 8 45 9 1
1 15 2 30 3 16 1 -5 -11 -52 -28z m998 -99 c30 0 18 -30 -18 -46 -47 -19 -52
-18 -53 14 0 37 7 45 32 38 11 -3 29 -6 39 -6z m-1926 -277 c9 -26 -187 -74
-213 -52 -14 11 -100 -1 -181 -27 -26 -8 -63 -17 -81 -19 -30 -5 -32 -4 -22
15 21 40 144 71 327 83 23 2 46 6 49 10 11 11 117 2 121 -10z m-270 -185 c0
-7 4 -21 8 -31 4 -10 4 -17 -1 -16 -23 4 -31 -5 -54 -60 -15 -37 -29 -57 -37
-54 -15 6 -18 33 -4 33 5 0 15 17 22 38 23 71 39 102 52 102 8 0 14 -6 14 -12z
m1248 -72 c32 -17 63 -39 69 -48 17 -28 -45 -71 -180 -126 -111 -45 -122 -47
-135 -32 -43 51 -112 38 -132 -25 -17 -57 -36 -100 -45 -103 -6 -2 -26 1 -44
6 -18 5 -43 6 -54 2 -11 -4 -35 -10 -54 -13 -19 -3 -46 -8 -60 -12 -14 -3 -61
-12 -104 -20 -43 -8 -88 -17 -98 -21 -28 -9 -69 -15 -95 -15 -13 1 -23 -4 -23
-10 0 -5 4 -8 8 -5 4 2 13 1 20 -3 7 -4 -6 -11 -31 -18 -115 -30 -197 -45
-210 -40 -8 3 -18 3 -21 -1 -10 -9 -33 -12 -121 -15 -90 -4 -105 -1 -105 20 0
10 6 12 19 8 22 -7 42 21 49 64 1 13 10 33 20 46 16 21 17 21 69 5 61 -19 94
-19 138 0 17 7 56 14 88 15 73 3 200 63 326 154 46 34 87 61 91 61 4 0 27 14
51 32 24 18 52 34 63 35 10 2 48 15 85 30 115 47 181 61 272 61 77 -1 93 -4
144 -32z m-1502 -58 l18 -33 -26 30 c-14 17 -31 39 -37 50 -10 19 -10 19 8 3
10 -9 27 -32 37 -50z m796 -7 c-13 -10 -43 -30 -66 -45 -33 -20 -43 -23 -43
-11 0 8 -1 18 -2 22 -3 6 104 50 126 52 5 1 -2 -7 -15 -18z m-262 -77 c4 -13
-67 -44 -105 -47 -18 -1 -22 -7 -22 -34 0 -18 -3 -33 -7 -34 -5 0 -17 -2 -28
-5 -11 -2 -51 -6 -90 -10 -38 -3 -73 -8 -77 -11 -12 -6 -10 1 11 50 29 66 73
89 191 97 116 8 122 8 127 -6z m-553 -68 c-6 -16 -8 -17 -16 -2 -11 19 0 42
13 29 6 -6 7 -18 3 -27z m1473 -80 c-91 -95 -144 -189 -150 -268 -2 -29 -13
-60 -29 -85 -15 -21 -34 -69 -43 -108 -22 -99 -85 -308 -96 -321 -5 -6 -7 -13
-5 -15 3 -2 -3 -15 -13 -28 -18 -24 -18 -24 -10 31 5 30 16 72 25 94 9 21 17
52 19 69 12 106 17 144 26 171 14 46 19 72 25 144 3 35 8 68 11 74 4 5 8 21 9
35 2 24 10 58 14 71 1 3 2 12 1 21 -2 21 16 35 59 47 34 10 20 17 -24 12 -30
-3 -9 18 27 26 17 4 34 9 37 10 3 1 15 5 26 9 12 3 43 17 70 30 68 32 69 31
21 -19z m-1347 27 c0 -17 -19 -35 -29 -29 -18 12 -12 36 9 36 11 0 20 -3 20
-7z m-137 -54 c7 0 3 -4 -8 -8 -22 -9 -35 -5 -35 11 0 5 7 7 16 4 9 -3 21 -6
27 -7z m-53 -143 c31 -47 25 -76 -10 -40 -16 17 -36 84 -25 84 2 0 18 -20 35
-44z m1039 10 c-8 -8 -41 -18 -74 -21 -62 -8 -74 0 -16 10 18 3 47 12 64 19
37 15 47 12 26 -8z m52 -98 c-5 -13 -9 -27 -10 -33 -4 -30 -74 -223 -166 -457
-10 -26 -28 -22 -70 16 l-37 34 37 12 c20 7 35 14 33 15 -2 2 -24 6 -48 9 -25
4 -61 10 -80 15 -59 13 -335 1 -400 -19 -19 -6 -48 -13 -65 -16 -16 -3 -55
-11 -86 -19 -66 -17 -80 -18 -59 -5 11 7 9 11 -13 19 -16 6 -39 11 -53 11 -23
0 -64 31 -64 48 0 4 7 16 16 27 8 11 19 37 25 58 10 37 11 38 42 30 38 -9 218
-10 267 -1 60 12 64 13 115 42 28 15 64 30 80 33 17 2 41 15 55 27 22 20 71
48 160 91 33 17 144 43 200 49 25 2 45 5 45 6 0 1 11 3 24 6 13 2 31 9 40 14
22 13 22 13 12 -12z m-461 -6 c0 -4 -17 -15 -37 -25 -38 -19 -53 -26 -154 -84
-30 -17 -78 -34 -105 -37 -27 -4 -64 -8 -81 -11 -18 -2 -35 0 -38 4 -2 5 -23
4 -44 -2 -22 -6 -43 -8 -46 -5 -7 7 16 65 37 92 13 16 31 20 129 22 63 2 125
6 139 9 14 3 50 10 80 15 30 4 66 13 80 18 31 13 40 14 40 4z m-601 -134 c-8
-14 -14 -18 -17 -10 -4 13 17 46 25 38 3 -2 -1 -15 -8 -28z m2331 -24 c0 -8
-5 -12 -10 -9 -6 4 -8 11 -5 16 9 14 15 11 15 -7z m-2335 -32 c-8 -8 -25 10
-19 20 4 6 9 5 15 -3 4 -7 6 -15 4 -17z m-95 -1 c0 -9 -41 -23 -48 -16 -2 2
-1 8 3 14 8 13 45 15 45 2z m90 -92 c-7 -24 -14 -52 -16 -62 -6 -33 -16 -59
-20 -54 -3 2 2 35 11 73 22 90 24 98 31 91 3 -3 0 -25 -6 -48z m-181 -30 c13
-22 21 -43 18 -46 -11 -10 -50 36 -52 61 -4 37 8 32 34 -15z m141 -111 c0 -19
-18 -43 -25 -36 -4 3 -2 16 5 27 12 24 20 27 20 9z m115 -20 c11 -2 22 -6 25
-10 6 -8 49 -16 122 -23 29 -3 53 -7 55 -9 2 -1 -41 -24 -94 -49 -64 -29 -119
-48 -157 -52 -38 -5 -56 -4 -52 3 3 5 0 29 -7 53 -21 70 -4 102 52 94 20 -3
45 -6 56 -7z m2545 -113 c11 -13 8 -15 -21 -15 -31 0 -32 1 -13 15 10 8 20 15
20 15 1 0 7 -7 14 -15z m30 -23 c0 -7 -11 -16 -84 -70 l-31 -23 -9 28 c-7 20
-6 28 5 32 8 3 34 13 59 22 55 20 60 21 60 11z m-2941 -210 c1 -7 -3 -10 -9
-7 -5 3 -10 18 -9 33 0 24 1 25 9 7 5 -11 9 -26 9 -33z m259 -190 c-3 -16 -11
-18 -98 -28 l-55 -6 30 29 c26 25 36 28 78 25 37 -3 47 -8 45 -20z m-371 -258
c-10 -11 -37 29 -37 54 1 26 2 25 21 -11 11 -22 18 -41 16 -43z m31 -104 c15
0 7 -41 -15 -80 -9 -16 -12 -18 -8 -5 20 60 13 92 -7 35 -13 -40 -32 -33 -34
11 -1 44 4 52 30 45 11 -3 27 -6 34 -6z m-128 -165 c-7 -8 -17 -15 -23 -15 -6
0 -2 7 9 15 25 19 30 19 14 0z m2139 -122 c-24 -44 -46 -69 -54 -62 -3 3 3 15
12 27 10 12 26 33 36 47 26 37 30 30 6 -12z m-2120 -7 c-11 -24 -29 -36 -29
-18 0 12 31 54 36 49 3 -2 -1 -16 -7 -31z m1891 -280 c0 -2 -7 -9 -15 -16 -13
-11 -14 -10 -9 4 5 14 24 23 24 12z m-336 -348 c-24 -32 -96 -90 -102 -83 -3
3 12 20 33 38 22 17 48 42 59 54 25 29 34 22 10 -9z m-224 -288 c0 -5 -5 -10
-11 -10 -5 0 -7 5 -4 10 3 6 8 10 11 10 2 0 4 -4 4 -10z m-843 -404 l57 -53
-17 -36 c-10 -20 -27 -39 -40 -43 -22 -8 -22 -8 3 -14 24 -6 21 -9 -37 -51
-105 -74 -129 -87 -146 -77 -15 8 -43 82 -39 101 1 4 -1 7 -5 7 -5 0 -16 -19
-26 -42 -27 -65 -90 -166 -107 -172 -8 -3 -39 -14 -69 -25 -43 -15 -58 -17
-73 -8 -32 20 -22 51 30 88 68 49 79 58 221 184 74 66 181 176 181 187 0 15 9
9 67 -46z"/>
<path d="M4186 2593 c-21 -28 -16 -41 7 -18 9 8 25 15 37 15 17 0 18 2 8 13
-18 20 -31 17 -52 -10z"/>
<path d="M4358 2507 c-32 -29 -58 -56 -58 -60 0 -15 19 -5 54 29 34 33 73 84
65 84 -2 0 -30 -24 -61 -53z"/>
<path d="M4114 2513 c-23 -25 -23 -27 -8 -45 10 -10 13 -18 9 -18 -5 0 2 -11
15 -25 13 -14 33 -25 44 -25 19 1 19 2 -7 25 -28 25 -36 54 -23 93 10 29 1 28
-30 -5z"/>
<path d="M3818 2436 c-7 -8 -44 -53 -81 -100 -78 -97 -86 -132 -33 -151 27 -9
32 -6 83 50 30 33 68 79 84 101 l28 42 -27 35 c-30 41 -35 43 -54 23z"/>
<path d="M2727 2434 c-1 -1 -24 -4 -51 -7 -75 -9 -205 -56 -217 -78 -8 -16 -5
-21 18 -30 15 -6 30 -15 34 -20 4 -7 29 -2 69 11 79 27 160 37 160 21 0 -20
39 -12 54 12 8 12 16 35 18 52 3 28 1 30 -40 36 -23 3 -43 4 -45 3z"/>
<path d="M3510 2084 c-27 -17 -60 -66 -60 -90 0 -8 -7 -14 -16 -14 -17 0 -104
-86 -104 -103 0 -16 41 -67 54 -67 24 0 236 241 236 268 0 24 -75 28 -110 6z"/>
</g>
</svg>
